<svg xmlns="http://www.w3.org/2000/svg" viewBox="0 0 64 64">
  <rect width="64" height="64" rx="16" fill="#0d2b1a"/>
  <path d="M19 35c-6 2-12 0-14-5-2-4 0-9 6-11l18-7c4-2 8 0 9 4l5 12c1 4 0 8-4 9l-20 8Z" fill="#95df35" stroke="#072f15" stroke-width="3" transform="rotate(-19 24 28)"/>
  <path d="M37 18h15c6 0 11 5 11 11s-5 11-11 11H37c-4 0-7-3-7-7v-8c0-4 3-7 7-7Z" fill="#2f9a3f" stroke="#072f15" stroke-width="3" transform="rotate(23 46 29)"/>
  <path d="M31 22c-6-1-10-5-12-10 9-2 17 2 21 10-3 1-6 1-9 0Z" fill="#70c842" stroke="#072f15" stroke-width="2.5"/>
  <path d="M38 22c-1-9 6-16 18-18 0 13-7 21-18 25" fill="#c9ff3f" stroke="#072f15" stroke-width="2.5"/>
  <circle cx="33" cy="32" r="3" fill="#c9ff3f" stroke="#5ea724" stroke-width="1.5"/>
  <circle cx="29" cy="39" r="2.5" fill="#71cc37" stroke="#072f15" stroke-width="1.5"/>
</svg>
