<svg xmlns="http://www.w3.org/2000/svg" viewBox="0 0 360 126" role="img" aria-labelledby="title desc">
  <title id="title">Natural Korea logo</title>
  <desc id="desc">Green supplement capsules, leaves, and the Natural Korea wordmark.</desc>
  <defs>
    <linearGradient id="leftFill" x1="53" x2="160" y1="66" y2="33" gradientUnits="userSpaceOnUse">
      <stop stop-color="#efff52"/>
      <stop offset="0.35" stop-color="#baf23b"/>
      <stop offset="0.72" stop-color="#58bb3a"/>
      <stop offset="1" stop-color="#277f34"/>
    </linearGradient>
    <linearGradient id="rightFill" x1="177" x2="288" y1="36" y2="88" gradientUnits="userSpaceOnUse">
      <stop stop-color="#83d63a"/>
      <stop offset="0.5" stop-color="#45aa3b"/>
      <stop offset="1" stop-color="#1f7b35"/>
    </linearGradient>
    <linearGradient id="leafFill" x1="126" x2="230" y1="5" y2="61" gradientUnits="userSpaceOnUse">
      <stop stop-color="#e2ff49"/>
      <stop offset="0.48" stop-color="#9be637"/>
      <stop offset="1" stop-color="#34a143"/>
    </linearGradient>
    <linearGradient id="textFill" x1="94" x2="266" y1="95" y2="118" gradientUnits="userSpaceOnUse">
      <stop stop-color="#f1ffe4"/>
      <stop offset="1" stop-color="#bcec62"/>
    </linearGradient>
    <filter id="shadow" x="-12%" y="-14%" width="124%" height="136%" color-interpolation-filters="sRGB">
      <feDropShadow dx="0" dy="3" stdDeviation="2.4" flood-color="#03180b" flood-opacity="0.48"/>
      <feDropShadow dx="0" dy="0" stdDeviation="5" flood-color="#8cec32" flood-opacity="0.24"/>
    </filter>
  </defs>

  <g filter="url(#shadow)" stroke="#073515" stroke-linecap="round" stroke-linejoin="round">
    <path d="M84.6 72.4C61 81 35.9 72.9 28.5 54.4 21.2 35.8 34.5 14 58.1 5.5l69.2-25.1c9.8-3.5 20.7 1.5 24.3 11.3l18.9 52.2c3.6 9.8-1.5 20.7-11.3 24.3L84.6 72.4Z" fill="url(#leftFill)" stroke-width="5.5" transform="translate(20 18) rotate(-17 96 31)"/>
    <path d="M51 57.3c17.8 12.1 44.2 11.4 73.8-2" fill="none" stroke="#f4ff7e" stroke-width="4" opacity="0.5" transform="translate(20 18) rotate(-17 96 31)"/>
    <path d="M125 2.5 153.5 83" fill="none" stroke="#083817" stroke-width="2.2" opacity="0.28" transform="translate(20 18) rotate(-17 96 31)"/>

    <path d="M200.4 18.8h70.6c24 0 43.5 19.5 43.5 43.5s-19.5 43.5-43.5 43.5h-70.6c-10 0-18.1-8.1-18.1-18.1V36.9c0-10 8.1-18.1 18.1-18.1Z" fill="url(#rightFill)" stroke-width="5.5" transform="translate(-14 12) rotate(22 248 62)"/>
    <path d="M204 33h58c21 0 37.8 16.9 37.8 37.8" fill="none" stroke="#c7f65b" stroke-width="4" opacity="0.45" transform="translate(-14 12) rotate(22 248 62)"/>
    <path d="M187.5 22v73" fill="none" stroke="#083817" stroke-width="2.2" opacity="0.28" transform="translate(-14 12) rotate(22 248 62)"/>

    <path d="M161.4 42.4c-20.1-4.5-34.9-17.3-44.1-35.7 27-4.9 51.7 7.2 64.8 32.9 2.6 5.2 4.5 10.6 5.4 16.4-8.6-3.1-17.4-7.6-26.1-13.6Z" fill="#52b93b" stroke-width="4.6"/>
    <path d="M195.3 45.5C191.4 17.3 214.8 5 253.7 7.7c-1 34.8-22.8 54.4-58.4 65.8" fill="url(#leafFill)" stroke-width="4.6"/>
    <path d="M186.6 52C177.7 28.5 158.3 16.2 127 12.1" fill="none" stroke-width="3.2" opacity="0.74"/>
    <path d="M197.3 48.1c11.2-22 29.8-34.3 52-38.9" fill="none" stroke="#f0ff76" stroke-width="3" opacity="0.48"/>
    <path d="M164.4 36.8c-10.5-8-21.4-13.4-32.6-16.2" fill="none" stroke="#c9f45b" stroke-width="2.2" opacity="0.34"/>

    <circle cx="165" cy="62" r="7" fill="#68ca3d" stroke-width="2.7"/>
    <circle cx="184.4" cy="58.8" r="7.8" fill="#c8f438" stroke="#72b728" stroke-width="2.2"/>
    <circle cx="170.9" cy="79.2" r="6" fill="#51b83a" stroke-width="2.7"/>
    <circle cx="190.8" cy="76.6" r="5.8" fill="#58c341" stroke-width="2.7"/>
    <circle cx="178.3" cy="94.8" r="4.8" fill="#bdea39" stroke="#70b327" stroke-width="2.1"/>
  </g>

  <text x="180" y="118" text-anchor="middle" fill="#073515" stroke="#073515" stroke-width="6" paint-order="stroke fill" font-family="Arial Rounded MT Bold, Arial, sans-serif" font-size="34" font-weight="800" letter-spacing="0.3">
    Natural Korea
  </text>
  <text x="180" y="118" text-anchor="middle" fill="url(#textFill)" font-family="Arial Rounded MT Bold, Arial, sans-serif" font-size="34" font-weight="800" letter-spacing="0.3">
    Natural Korea
  </text>
</svg>
