<svg xmlns="http://www.w3.org/2000/svg" viewBox="0 0 520 128" role="img" aria-labelledby="title desc">
  <title id="title">Natural Korea logo</title>
  <desc id="desc">A premium green capsule and leaf mark beside the Natural Korea wordmark.</desc>
  <defs>
    <linearGradient id="leftCapsule" x1="13" x2="125" y1="77" y2="42" gradientUnits="userSpaceOnUse">
      <stop stop-color="#efff55"/>
      <stop offset="0.28" stop-color="#baf33c"/>
      <stop offset="0.66" stop-color="#57ba39"/>
      <stop offset="1" stop-color="#238134"/>
    </linearGradient>
    <linearGradient id="rightCapsule" x1="95" x2="202" y1="42" y2="87" gradientUnits="userSpaceOnUse">
      <stop stop-color="#7ed13a"/>
      <stop offset="0.52" stop-color="#45a93b"/>
      <stop offset="1" stop-color="#1f7b35"/>
    </linearGradient>
    <linearGradient id="leafBright" x1="96" x2="173" y1="5" y2="57" gradientUnits="userSpaceOnUse">
      <stop stop-color="#e3ff4b"/>
      <stop offset="0.5" stop-color="#98e238"/>
      <stop offset="1" stop-color="#34a143"/>
    </linearGradient>
    <linearGradient id="wordFill" x1="226" x2="493" y1="41" y2="91" gradientUnits="userSpaceOnUse">
      <stop stop-color="#f0ffe5"/>
      <stop offset="1" stop-color="#b9ee64"/>
    </linearGradient>
  </defs>

  <g stroke="#073515" stroke-linecap="round" stroke-linejoin="round">
    <path d="M39.7 77.8C19.3 85.2 0.2 80.1-4.7 66.6-9.5 53.1 3.1 36.4 23.5 29l55.1-20.1c9.1-3.3 19.1 1.4 22.4 10.5l14.3 39.3c3.3 9.1-1.4 19.1-10.5 22.4L39.7 77.8Z" fill="url(#leftCapsule)" stroke-width="5" transform="rotate(-17 54 51)"/>
    <path d="M20.5 67.4c15.7 9.8 37.7 9 61.3-2.2" fill="none" stroke="#f5ff82" stroke-width="4" opacity="0.55" transform="rotate(-17 54 51)"/>
    <path d="M78.8 17.5 103.9 86" fill="none" stroke="#073515" stroke-width="2.2" opacity="0.26" transform="rotate(-17 54 51)"/>

    <path d="M110.5 28.8h58.8c21.8 0 39.5 17.7 39.5 39.5s-17.7 39.5-39.5 39.5h-58.8c-9.4 0-17-7.6-17-17V45.8c0-9.4 7.6-17 17-17Z" fill="url(#rightCapsule)" stroke-width="5" transform="rotate(22 151 68)"/>
    <path d="M111.7 43.3h50.5c18 0 32.5 14.5 32.5 32.5" fill="none" stroke="#c8fa62" stroke-width="4" opacity="0.48" transform="rotate(22 151 68)"/>
    <path d="M99.6 37.7v63.9" fill="none" stroke="#073515" stroke-width="2.2" opacity="0.27" transform="rotate(22 151 68)"/>

    <path d="M92.6 35.2C75.7 31.6 63 20.9 55 6c22.7-4.3 43.8 5.6 55 26.8 2.4 4.5 4.1 9.2 5 14.2-7.5-2.8-15.1-6.6-22.4-11.8Z" fill="#54b83c" stroke-width="4"/>
    <path d="M122.2 38.4c-3.2-24.1 16.8-41.8 49.9-43.9 0.8 31-17.6 50.9-49.2 61.2" fill="url(#leafBright)" stroke-width="4"/>
    <path d="M114 45.8C105.9 25.4 89.5 15 62.8 11.6" fill="none" stroke-width="3" opacity="0.75"/>
    <path d="M123.5 40.6c9.6-20.4 25.2-33.4 43.8-39.6" fill="none" stroke="#f2ff80" stroke-width="2.8" opacity="0.5"/>

    <circle cx="93.8" cy="59.1" r="6.8" fill="#6aca3c" stroke-width="2.5"/>
    <circle cx="110.5" cy="56.2" r="7.2" fill="#c8f439" stroke="#75b828" stroke-width="2.2"/>
    <circle cx="99.4" cy="75.2" r="5.7" fill="#50b739" stroke-width="2.5"/>
    <circle cx="116.7" cy="72.7" r="5.5" fill="#58c240" stroke-width="2.5"/>
    <circle cx="105.9" cy="89.4" r="4.6" fill="#bdeb3b" stroke="#72b429" stroke-width="2"/>
  </g>

  <g>
    <text x="226" y="76" fill="#083716" stroke="#083716" stroke-width="5.5" paint-order="stroke fill" font-family="Arial Rounded MT Bold, Arial, sans-serif" font-size="45" font-weight="800" letter-spacing="0.4">
      Natural Korea
    </text>
    <text x="226" y="76" fill="url(#wordFill)" font-family="Arial Rounded MT Bold, Arial, sans-serif" font-size="45" font-weight="800" letter-spacing="0.4">
      Natural Korea
    </text>
    <path d="M230 91h218" fill="none" stroke="#b9ee64" stroke-width="3" opacity="0.72"/>
    <path d="M230 99h122" fill="none" stroke="#f0ffe5" stroke-width="2" opacity="0.3"/>
  </g>
</svg>
