<svg xmlns="http://www.w3.org/2000/svg" viewBox="0 0 560 190" role="img" aria-labelledby="title desc">
  <title id="title">Natural Korea logo</title>
  <desc id="desc">Complete Natural Korea capsule and leaf logo with wordmark.</desc>
  <defs>
    <radialGradient id="badgeGlow" cx="50%" cy="35%" r="72%">
      <stop offset="0" stop-color="#5ecb35" stop-opacity="0.5"/>
      <stop offset="0.58" stop-color="#123f22" stop-opacity="0.34"/>
      <stop offset="1" stop-color="#0b2c18" stop-opacity="0"/>
    </radialGradient>
    <linearGradient id="leftCapsule" x1="134" x2="265" y1="92" y2="64" gradientUnits="userSpaceOnUse">
      <stop stop-color="#efff53"/>
      <stop offset="0.34" stop-color="#bdf33b"/>
      <stop offset="0.72" stop-color="#5abc3b"/>
      <stop offset="1" stop-color="#267f34"/>
    </linearGradient>
    <linearGradient id="rightCapsule" x1="300" x2="431" y1="65" y2="108" gradientUnits="userSpaceOnUse">
      <stop stop-color="#82d63a"/>
      <stop offset="0.55" stop-color="#45aa3b"/>
      <stop offset="1" stop-color="#1f7b35"/>
    </linearGradient>
    <linearGradient id="leafMain" x1="256" x2="362" y1="17" y2="78" gradientUnits="userSpaceOnUse">
      <stop stop-color="#e3ff49"/>
      <stop offset="0.48" stop-color="#99e437"/>
      <stop offset="1" stop-color="#34a143"/>
    </linearGradient>
    <linearGradient id="wordFill" x1="169" x2="391" y1="137" y2="171" gradientUnits="userSpaceOnUse">
      <stop stop-color="#f4ffe9"/>
      <stop offset="1" stop-color="#bff064"/>
    </linearGradient>
    <filter id="softLift" x="-20%" y="-20%" width="140%" height="145%" color-interpolation-filters="sRGB">
      <feDropShadow dx="0" dy="4" stdDeviation="3.2" flood-color="#03170a" flood-opacity="0.62"/>
      <feDropShadow dx="0" dy="0" stdDeviation="8" flood-color="#9af238" flood-opacity="0.28"/>
    </filter>
  </defs>

  <rect x="26" y="16" width="508" height="158" rx="18" fill="#0d301b"/>
  <rect x="27.5" y="17.5" width="505" height="155" rx="16.5" fill="url(#badgeGlow)" stroke="rgba(255,255,255,0.62)" stroke-width="3"/>

  <g filter="url(#softLift)" stroke="#073515" stroke-linecap="round" stroke-linejoin="round">
    <path d="M176.3 98.1c-30.5 11.1-63.1 1.9-72.8-20.7-9.7-22.6 7.1-49.8 37.6-60.9l78.2-28.4c12.1-4.4 25.5 1.8 29.9 13.9l20.9 57.4c4.4 12.1-1.8 25.5-13.9 29.9l-79.9 8.8Z" fill="url(#leftCapsule)" stroke-width="6" transform="rotate(-18 186 55)"/>
    <path d="M126.5 80.8c21.3 15 55.1 14.1 94.5-2.7" fill="none" stroke="#f6ff7e" stroke-width="4.8" opacity="0.55" transform="rotate(-18 186 55)"/>
    <path d="M222 4.5 255.8 98.1" fill="none" stroke="#083817" stroke-width="2.8" opacity="0.28" transform="rotate(-18 186 55)"/>

    <path d="M312.5 38.5h82.8c29 0 52.5 23.5 52.5 52.5s-23.5 52.5-52.5 52.5h-82.8c-12.8 0-23.2-10.4-23.2-23.2V61.7c0-12.8 10.4-23.2 23.2-23.2Z" fill="url(#rightCapsule)" stroke-width="6" transform="rotate(22 368 91)"/>
    <path d="M316.6 56.7h69.5c25.2 0 45.7 20.4 45.7 45.7" fill="none" stroke="#c9f862" stroke-width="4.8" opacity="0.5" transform="rotate(22 368 91)"/>
    <path d="M296.4 43.6v88.9" fill="none" stroke="#083817" stroke-width="2.8" opacity="0.28" transform="rotate(22 368 91)"/>

    <path d="M266.6 62.5c-25.6-5.6-44.4-21.5-56.4-44.5 34-6.6 65.4 8.3 82.4 40.3 3.4 6.5 5.7 13.4 6.9 20.7-10.9-4-21.9-9.4-32.9-16.5Z" fill="#54ba3d" stroke-width="5.3"/>
    <path d="M305.9 66.7c-4.8-36 25.4-61.3 75.2-62.9 0.3 43.5-27.5 72.6-74.2 88" fill="url(#leafMain)" stroke-width="5.3"/>
    <path d="M296.3 76.3c-11.5-31.5-36.3-47.8-76.3-53.2" fill="none" stroke-width="3.8" opacity="0.75"/>
    <path d="M307.6 69.9c14.8-29.7 38.6-48.8 67.7-57.5" fill="none" stroke="#f1ff78" stroke-width="3.5" opacity="0.48"/>
    <path d="M271.8 53c-14.5-11.1-29.3-18.4-44.2-22" fill="none" stroke="#c8f45d" stroke-width="2.8" opacity="0.36"/>

    <circle cx="265" cy="88" r="8.7" fill="#6aca3d" stroke-width="3"/>
    <circle cx="289" cy="84" r="9.6" fill="#c8f438" stroke="#72b728" stroke-width="2.5"/>
    <circle cx="273" cy="109" r="7.2" fill="#51b83a" stroke-width="3"/>
    <circle cx="298" cy="106" r="7" fill="#58c341" stroke-width="3"/>
    <circle cx="283" cy="128" r="5.8" fill="#bdea39" stroke="#70b327" stroke-width="2.3"/>
  </g>

  <text x="280" y="160" text-anchor="middle" fill="#073515" stroke="#073515" stroke-width="8" paint-order="stroke fill" font-family="Arial Rounded MT Bold, Arial, sans-serif" font-size="44" font-weight="800" letter-spacing="0.2">
    Natural Korea
  </text>
  <text x="280" y="160" text-anchor="middle" fill="url(#wordFill)" font-family="Arial Rounded MT Bold, Arial, sans-serif" font-size="44" font-weight="800" letter-spacing="0.2">
    Natural Korea
  </text>
</svg>
