<svg xmlns="http://www.w3.org/2000/svg" viewBox="0 0 360 116" role="img" aria-labelledby="title desc">
  <title id="title">Natural Korea logo</title>
  <desc id="desc">Premium green capsule and leaf Natural Korea logo.</desc>
  <defs>
    <linearGradient id="leftCapsuleFill" x1="53" x2="176" y1="50" y2="80" gradientUnits="userSpaceOnUse">
      <stop stop-color="#d8ff43"/>
      <stop offset="0.34" stop-color="#a9ed35"/>
      <stop offset="0.7" stop-color="#55b63b"/>
      <stop offset="1" stop-color="#277f34"/>
    </linearGradient>
    <linearGradient id="rightCapsuleFill" x1="191" x2="309" y1="44" y2="83" gradientUnits="userSpaceOnUse">
      <stop stop-color="#83d63a"/>
      <stop offset="0.5" stop-color="#46ac3d"/>
      <stop offset="1" stop-color="#1f7b35"/>
    </linearGradient>
    <linearGradient id="leafFill" x1="136" x2="246" y1="3" y2="56" gradientUnits="userSpaceOnUse">
      <stop stop-color="#dcff43"/>
      <stop offset="0.46" stop-color="#9be637"/>
      <stop offset="1" stop-color="#34a141"/>
    </linearGradient>
    <linearGradient id="leafDeep" x1="138" x2="190" y1="13" y2="48" gradientUnits="userSpaceOnUse">
      <stop stop-color="#83d83c"/>
      <stop offset="1" stop-color="#258837"/>
    </linearGradient>
    <filter id="lift" x="-12%" y="-18%" width="124%" height="142%" color-interpolation-filters="sRGB">
      <feDropShadow dx="0" dy="3" stdDeviation="2.4" flood-color="#071f0f" flood-opacity="0.45"/>
      <feDropShadow dx="0" dy="0" stdDeviation="4" flood-color="#7ee434" flood-opacity="0.28"/>
    </filter>
    <filter id="textLift" x="-5%" y="-18%" width="110%" height="136%" color-interpolation-filters="sRGB">
      <feDropShadow dx="0" dy="1.2" stdDeviation="0.9" flood-color="#071f0f" flood-opacity="0.7"/>
    </filter>
  </defs>

  <g filter="url(#lift)" stroke-linecap="round" stroke-linejoin="round">
    <path d="M80.2 71.6c-23.1 8.4-47.3.3-54.1-18.2-6.7-18.5 6.6-40.2 29.7-48.6l70.1-25.5c10.1-3.7 21.2 1.5 24.9 11.6l19.8 54.4c3.7 10.1-1.5 21.2-11.6 24.9L80.2 71.6Z" fill="url(#leftCapsuleFill)" stroke="#063515" stroke-width="6" transform="rotate(-17 96 29)"/>
    <path d="M49.8 55.9c18.5 13.7 47.4 13.8 77.6.2" fill="none" stroke="#edff71" stroke-width="4.2" opacity="0.48" transform="rotate(-17 96 29)"/>
    <path d="M123.4 2.3 153.6 85" fill="none" stroke="#083817" stroke-width="2.4" opacity="0.34" transform="rotate(-17 96 29)"/>

    <path d="M199.4 16.6h72.9c24.5 0 44.4 19.9 44.4 44.4s-19.9 44.4-44.4 44.4h-72.9c-10.4 0-18.8-8.4-18.8-18.8V35.4c0-10.4 8.4-18.8 18.8-18.8Z" fill="url(#rightCapsuleFill)" stroke="#063515" stroke-width="6" transform="rotate(22 248.6 61)"/>
    <path d="M204.8 31.3h59.9c21.3 0 38.5 17.2 38.5 38.5" fill="none" stroke="#bff45a" stroke-width="4.2" opacity="0.45" transform="rotate(22 248.6 61)"/>
    <path d="M186.2 21.3v75" fill="none" stroke="#083817" stroke-width="2.4" opacity="0.3" transform="rotate(22 248.6 61)"/>

    <path d="M166.1 34.7c-19.9-4.2-34.6-16.8-43.9-34.3 26.7-5 51.3 6.7 64.6 31.6 2.8 5.2 4.8 10.8 5.9 16.7-8.8-3.3-17.8-7.7-26.6-14Z" fill="url(#leafDeep)" stroke="#063515" stroke-width="5"/>
    <path d="M197.8 39.1c-3.8-28.2 19.7-49 58.6-51.4 1 36.3-20.6 59.6-57.8 71.7" fill="url(#leafFill)" stroke="#063515" stroke-width="5"/>
    <path d="M190.8 45.7c-9.1-24.6-28.3-37.2-59.9-41.2" fill="none" stroke="#073314" stroke-width="3.4" opacity="0.75"/>
    <path d="M199.7 42.2c11.4-24.6 29.6-40.6 51.6-47.9" fill="none" stroke="#efff74" stroke-width="3.2" opacity="0.46"/>
    <path d="M170.5 29.1c-11-8.5-22.4-14.1-34.1-16.7" fill="none" stroke="#bdf052" stroke-width="2.5" opacity="0.34"/>

    <circle cx="169.5" cy="56.4" r="7.7" fill="#67c83d" stroke="#063515" stroke-width="3"/>
    <circle cx="189.2" cy="53.2" r="8.4" fill="#c8f539" stroke="#74b928" stroke-width="2.4"/>
    <circle cx="175.4" cy="75" r="6.6" fill="#53b83a" stroke="#063515" stroke-width="3"/>
    <circle cx="196.1" cy="72" r="6.3" fill="#58c441" stroke="#063515" stroke-width="3"/>
    <circle cx="183" cy="91.6" r="5.2" fill="#bdea3a" stroke="#70b327" stroke-width="2.3"/>
  </g>

  <g filter="url(#textLift)">
    <text x="180" y="109" text-anchor="middle" fill="#eaffda" stroke="#073515" stroke-width="3.2" paint-order="stroke fill" font-family="Arial Rounded MT Bold, Arial, sans-serif" font-size="35" font-weight="700" letter-spacing="0.6">
      Natural Korea
    </text>
    <text x="180" y="109" text-anchor="middle" fill="#c6f268" font-family="Arial Rounded MT Bold, Arial, sans-serif" font-size="35" font-weight="700" letter-spacing="0.6" opacity="0.18">
      Natural Korea
    </text>
  </g>
</svg>
